<?xml version="1.0" encoding="UTF-8" standalone="no"?>
<svg
   xmlns:dc="http://purl.org/dc/elements/1.1/"
   xmlns:cc="http://creativecommons.org/ns#"
   xmlns:rdf="http://www.w3.org/1999/02/22-rdf-syntax-ns#"
   xmlns:svg="http://www.w3.org/2000/svg"
   xmlns="http://www.w3.org/2000/svg"
   xmlns:sodipodi="http://sodipodi.sourceforge.net/DTD/sodipodi-0.dtd"
   xmlns:inkscape="http://www.inkscape.org/namespaces/inkscape"
   width="23.112015"
   height="19.368"
   viewBox="0 0 23.112015 19.368"
   version="1.1"
   id="svg18"
   sodipodi:docname="ohmyfood@2x-short.svg"
   style="fill:none"
   inkscape:version="0.92.4 (5da689c313, 2019-01-14)">
  <metadata
     id="metadata24">
    <rdf:RDF>
      <cc:Work
         rdf:about="">
        <dc:format>image/svg+xml</dc:format>
        <dc:type
           rdf:resource="http://purl.org/dc/dcmitype/StillImage" />
        <dc:title />
      </cc:Work>
    </rdf:RDF>
  </metadata>
  <defs
     id="defs22" />
  <sodipodi:namedview
     pagecolor="#ffffff"
     bordercolor="#666666"
     borderopacity="1"
     objecttolerance="10"
     gridtolerance="10"
     guidetolerance="10"
     inkscape:pageopacity="0"
     inkscape:pageshadow="2"
     inkscape:window-width="1920"
     inkscape:window-height="1017"
     id="namedview20"
     showgrid="false"
     inkscape:zoom="1.8214286"
     inkscape:cx="8.4243301"
     inkscape:cy="10.324001"
     inkscape:window-x="-8"
     inkscape:window-y="-8"
     inkscape:window-maximized="1"
     inkscape:current-layer="svg18" />
  <path
     d="m 13.572015,0 c 3.264,0 5.664,0.65999 7.2,1.98 1.56,1.32 2.34,3.048 2.34,5.184 0,0.72 -0.096,1.524 -0.288,2.412 -0.456,1.968 -1.308,3.696 -2.556,5.184 -1.248,1.464 -2.784,2.604 -4.608,3.42 -1.8,0.792 -3.756,1.188 -5.868,1.188 -3.33601,0 -5.80801,-0.66 -7.41601,-1.98 C 0.792005,16.044 0,14.268 0,12.06 0,11.316 0.096,10.488 0.288,9.576 0.744005,7.704 1.608005,6.048 2.880005,4.608 c 1.296,-1.464 2.868,-2.592 4.716,-3.384 C 9.468005,0.408 11.460015,0 13.572015,0 Z m -0.108,3.204 c -0.504,0 -1.044,0.456 -1.62,1.368 -0.552,0.888 -1.212,2.58 -1.98,5.076 -0.76801,2.496 -1.15201,4.248 -1.15201,5.256 0,0.528 0.084,0.888 0.252,1.08 0.168,0.168 0.396,0.252 0.68401,0.252 0.504,0.048 1.02,-0.384 1.548,-1.296 0.552,-0.912 1.236,-2.688 2.052,-5.328 0.744,-2.328 1.116,-4.02 1.116,-5.076 0,-0.504 -0.084,-0.852 -0.252,-1.044 -0.144,-0.192 -0.36,-0.288 -0.648,-0.288 z"
     id="path2"
     inkscape:connector-curvature="0"
     style="fill:#101010" />
</svg>
