<?xml version="1.0" encoding="UTF-8" standalone="no"?>
<!-- Created with Inkscape (http://www.inkscape.org/) -->

<svg
   xmlns:dc="http://purl.org/dc/elements/1.1/"
   xmlns:cc="http://creativecommons.org/ns#"
   xmlns:rdf="http://www.w3.org/1999/02/22-rdf-syntax-ns#"
   xmlns:svg="http://www.w3.org/2000/svg"
   xmlns="http://www.w3.org/2000/svg"
   xmlns:sodipodi="http://sodipodi.sourceforge.net/DTD/sodipodi-0.dtd"
   xmlns:inkscape="http://www.inkscape.org/namespaces/inkscape"
   width="158.75mm"
   height="158.75mm"
   viewBox="0 0 158.75 158.75"
   version="1.1"
   id="svg8"
   sodipodi:docname="heart-negative-2.svg"
   inkscape:version="0.92.4 (5da689c313, 2019-01-14)">
  <defs
     id="defs2" />
  <sodipodi:namedview
     id="base"
     pagecolor="#ffffff"
     bordercolor="#666666"
     borderopacity="1.0"
     inkscape:pageopacity="0.0"
     inkscape:pageshadow="2"
     inkscape:zoom="0.98994949"
     inkscape:cx="46.289476"
     inkscape:cy="367.66957"
     inkscape:document-units="mm"
     inkscape:current-layer="layer1"
     showgrid="true"
     inkscape:window-width="1920"
     inkscape:window-height="1017"
     inkscape:window-x="-8"
     inkscape:window-y="-8"
     inkscape:window-maximized="1">
    <inkscape:grid
       type="xygrid"
       id="grid4518"
       originx="1.3229166e-07"
       originy="-137.58338" />
  </sodipodi:namedview>
  <metadata
     id="metadata5">
    <rdf:RDF>
      <cc:Work
         rdf:about="">
        <dc:format>image/svg+xml</dc:format>
        <dc:type
           rdf:resource="http://purl.org/dc/dcmitype/StillImage" />
        <dc:title></dc:title>
      </cc:Work>
    </rdf:RDF>
  </metadata>
  <g
     inkscape:label="Calque 1"
     inkscape:groupmode="layer"
     id="layer1"
     transform="translate(1.3229166e-7,-0.66662582)">
    <path
       style="fill:#ffffff;fill-opacity:1;stroke:none;stroke-width:0.99999994px;stroke-linecap:butt;stroke-linejoin:miter;stroke-opacity:1"
       d="M 0,0 V 600 H 600 V 0 Z m 166.94336,60.201172 c 16.41266,-0.104021 32.60553,2.378067 47.5293,7.666016 C 251.20808,80.883673 270,110 300,160 c 20,-40 49.1858,-78.728839 85.52734,-92.132812 36.73542,-13.016486 81.16256,-9.001664 117.61524,8.636718 36.45263,17.638383 64.47648,48.207964 71.05078,87.939454 6.57426,39.73149 -7.91172,90.26663 -61.56445,148.79687 L 300,545.19531 87.371094,313.24023 C 33.718379,254.70999 19.232365,204.17485 25.806641,164.44336 32.380916,124.71187 60.404767,94.142289 96.857422,76.503906 115.08375,67.684715 135.30296,62.265428 155.55859,60.683594 c 3.79794,-0.296594 7.59723,-0.458417 11.38477,-0.482422 z"
       transform="matrix(0.26458333,0,0,0.26458333,-1.3229166e-7,0.66662582)"
       id="path1380"
       inkscape:connector-curvature="0" />
  </g>
</svg>
