<?xml version="1.0" encoding="UTF-8" standalone="no"?>
<svg
   xmlns:dc="http://purl.org/dc/elements/1.1/"
   xmlns:cc="http://creativecommons.org/ns#"
   xmlns:rdf="http://www.w3.org/1999/02/22-rdf-syntax-ns#"
   xmlns:svg="http://www.w3.org/2000/svg"
   xmlns="http://www.w3.org/2000/svg"
   xmlns:sodipodi="http://sodipodi.sourceforge.net/DTD/sodipodi-0.dtd"
   xmlns:inkscape="http://www.inkscape.org/namespaces/inkscape"
   aria-hidden="true"
   focusable="false"
   data-prefix="fas"
   data-icon="sync-alt"
   class="svg-inline--fa fa-sync-alt fa-w-16"
   role="img"
   viewBox="0 0 796 796"
   version="1.1"
   id="svg4"
   sodipodi:docname="loading-2.svg"
   inkscape:version="0.92.4 (5da689c313, 2019-01-14)"
   width="796"
   height="796">
  <metadata
     id="metadata10">
    <rdf:RDF>
      <cc:Work
         rdf:about="">
        <dc:format>image/svg+xml</dc:format>
        <dc:type
           rdf:resource="http://purl.org/dc/dcmitype/StillImage" />
        <dc:title />
      </cc:Work>
    </rdf:RDF>
  </metadata>
  <defs
     id="defs8" />
  <sodipodi:namedview
     pagecolor="#ffffff"
     bordercolor="#666666"
     borderopacity="1"
     objecttolerance="10"
     gridtolerance="10"
     guidetolerance="10"
     inkscape:pageopacity="0"
     inkscape:pageshadow="2"
     inkscape:window-width="1920"
     inkscape:window-height="1017"
     id="namedview6"
     showgrid="true"
     inkscape:zoom="1.3037281"
     inkscape:cx="196.1918"
     inkscape:cy="472.24717"
     inkscape:window-x="-8"
     inkscape:window-y="-8"
     inkscape:window-maximized="1"
     inkscape:current-layer="svg4">
    <inkscape:grid
       type="xygrid"
       id="grid817"
       originx="142"
       originy="142" />
  </sodipodi:namedview>
  <path
     style="fill:#ffffff;fill-opacity:1;stroke:none;stroke-width:1px;stroke-linecap:butt;stroke-linejoin:miter;stroke-opacity:1"
     d="M 796,0 0,4 V 796 H 796 Z M 398,150 c 66.448,0 126.79045,26.13655 171.31445,68.68555 L 605.0293,182.9707 C 620.1483,167.8517 646,178.55941 646,199.94141 V 334 c 0,13.255 -10.745,24 -24,24 H 487.94141 c -21.382,0 -32.08971,-25.8507 -16.97071,-40.9707 l 41.75,-41.75 C 481.4587,246.0073 440.88766,229.962 397.84766,230 c -77.458,0.068 -144.32802,53.17761 -162.79102,126.84961 -1.344,5.363 -6.12139,9.15039 -11.65039,9.15039 h -57.30273 c -7.498,0 -13.19365,-6.80678 -11.80665,-14.17578 C 175.93387,236.92422 276.813,150 398,150 Z m 174.59375,280.00195 h 57.30469 c 7.498,0 13.19364,6.80678 11.80664,14.17578 C 620.06708,559.07573 519.187,646 398,646 331.552,646 271.20955,619.86345 226.68555,577.31445 L 190.9707,613.0293 C 175.8517,628.1483 150,617.44059 150,596.05859 V 462 c 0,-13.255 10.745,-24 24,-24 h 134.05859 c 21.382,0 32.08971,25.8507 16.97071,40.9707 l -41.75,41.75 c 31.262,29.273 71.83595,45.32025 114.87695,45.28125 77.418,-0.07 144.31511,-53.14461 162.78711,-126.84961 1.344,-5.363 6.12139,-9.15039 11.65039,-9.15039 z"
     id="path819"
     inkscape:connector-curvature="0"
     sodipodi:nodetypes="cccccscsssssccccsscssscscsssssccccs" />
</svg>
