<?xml version="1.0" encoding="UTF-8" standalone="no"?>
<svg
   xmlns:dc="http://purl.org/dc/elements/1.1/"
   xmlns:cc="http://creativecommons.org/ns#"
   xmlns:rdf="http://www.w3.org/1999/02/22-rdf-syntax-ns#"
   xmlns:svg="http://www.w3.org/2000/svg"
   xmlns="http://www.w3.org/2000/svg"
   xmlns:sodipodi="http://sodipodi.sourceforge.net/DTD/sodipodi-0.dtd"
   xmlns:inkscape="http://www.inkscape.org/namespaces/inkscape"
   aria-hidden="true"
   focusable="false"
   data-prefix="fas"
   data-icon="spinner"
   class="svg-inline--fa fa-spinner fa-w-16"
   role="img"
   viewBox="0 0 532 532"
   version="1.1"
   id="svg4"
   sodipodi:docname="loading.svg"
   width="532"
   height="532"
   inkscape:version="0.92.4 (5da689c313, 2019-01-14)">
  <metadata
     id="metadata10">
    <rdf:RDF>
      <cc:Work
         rdf:about="">
        <dc:format>image/svg+xml</dc:format>
        <dc:type
           rdf:resource="http://purl.org/dc/dcmitype/StillImage" />
        <dc:title></dc:title>
      </cc:Work>
    </rdf:RDF>
  </metadata>
  <defs
     id="defs8" />
  <sodipodi:namedview
     pagecolor="#ffffff"
     bordercolor="#666666"
     borderopacity="1"
     objecttolerance="10"
     gridtolerance="10"
     guidetolerance="10"
     inkscape:pageopacity="0"
     inkscape:pageshadow="2"
     inkscape:window-width="1920"
     inkscape:window-height="1017"
     id="namedview6"
     showgrid="true"
     inkscape:zoom="0.921875"
     inkscape:cx="180.67158"
     inkscape:cy="205.22301"
     inkscape:window-x="-8"
     inkscape:window-y="-8"
     inkscape:window-maximized="1"
     inkscape:current-layer="svg4">
    <inkscape:grid
       type="xygrid"
       id="grid817"
       originx="10"
       originy="10" />
  </sodipodi:namedview>
  <path
     style="fill:#ffffff;fill-opacity:1;stroke:none;stroke-width:1px;stroke-linecap:butt;stroke-linejoin:miter;stroke-opacity:1"
     d="M 0,0 V 532 H 532 V 0 Z m 266,10 c 26.51,0 48,21.49 48,48 0,26.51 -21.49,48 -48,48 -26.51,0 -48,-21.49 -48,-48 0,-26.51 21.49,-48 48,-48 z M 118.92188,70.921875 c 26.509,0 48,21.49 48,48.000005 0,26.50999 -21.49,48 -48,48 -26.510005,0 -48.000005,-21.49 -48.000005,-48 0,-26.510005 21.49,-48.000005 48.000005,-48.000005 z M 58,218 c 26.51,0 48,21.49 48,48 0,26.51 -21.49,48 -48,48 -26.51,0 -48,-21.49 -48,-48 0,-26.51 21.49,-48 48,-48 z m 416,0 c 26.51,0 48,21.49 48,48 0,26.51 -21.49,48 -48,48 -26.51,0 -48,-21.49 -48,-48 0,-26.51 21.49,-48 48,-48 z M 118.92188,365.07812 c 26.509,0 48,21.491 48,48 0,26.51 -21.49,48 -48,48 -26.510005,0 -48.000005,-21.49 -48.000005,-48 0,-26.50999 21.49,-48 48.000005,-48 z m 294.15624,0 c 26.51,0 48,21.491 48,48 0,26.51 -21.49,48 -48,48 -26.50999,0 -48,-21.49 -48,-48 0,-26.50999 21.49001,-48 48,-48 z M 266,426 c 26.51,0 48,21.49 48,48 0,26.51 -21.49,48 -48,48 -26.51,0 -48,-21.49 -48,-48 0,-26.51 21.49,-48 48,-48 z"
     id="path819"
     inkscape:connector-curvature="0" />
</svg>
