<?xml version="1.0" encoding="UTF-8" standalone="no"?>
<!-- Created with Inkscape (http://www.inkscape.org/) -->

<svg
   xmlns:dc="http://purl.org/dc/elements/1.1/"
   xmlns:cc="http://creativecommons.org/ns#"
   xmlns:rdf="http://www.w3.org/1999/02/22-rdf-syntax-ns#"
   xmlns:svg="http://www.w3.org/2000/svg"
   xmlns="http://www.w3.org/2000/svg"
   xmlns:sodipodi="http://sodipodi.sourceforge.net/DTD/sodipodi-0.dtd"
   xmlns:inkscape="http://www.inkscape.org/namespaces/inkscape"
   width="232.83333mm"
   height="232.83334mm"
   viewBox="0 0 232.83333 232.83334"
   version="1.1"
   id="svg851"
   inkscape:version="0.92.4 (5da689c313, 2019-01-14)"
   sodipodi:docname="menu.svg">
  <defs
     id="defs845" />
  <sodipodi:namedview
     id="base"
     pagecolor="#ffffff"
     bordercolor="#666666"
     borderopacity="1.0"
     inkscape:pageopacity="0.0"
     inkscape:pageshadow="2"
     inkscape:zoom="0.49497475"
     inkscape:cx="156.64369"
     inkscape:cy="622.8575"
     inkscape:document-units="mm"
     inkscape:current-layer="layer1"
     showgrid="true"
     inkscape:window-width="1920"
     inkscape:window-height="1017"
     inkscape:window-x="-8"
     inkscape:window-y="-8"
     inkscape:window-maximized="1">
    <inkscape:grid
       type="xygrid"
       id="grid853"
       originx="0"
       originy="-63.5" />
  </sodipodi:namedview>
  <metadata
     id="metadata848">
    <rdf:RDF>
      <cc:Work
         rdf:about="">
        <dc:format>image/svg+xml</dc:format>
        <dc:type
           rdf:resource="http://purl.org/dc/dcmitype/StillImage" />
        <dc:title />
      </cc:Work>
    </rdf:RDF>
  </metadata>
  <g
     inkscape:label="Calque 1"
     inkscape:groupmode="layer"
     id="layer1"
     transform="translate(0,-0.6666584)">
    <g
       style="fill:#7e7e7e;fill-opacity:1"
       id="g861" />
    <g
       id="g842">
      <ellipse
         style="fill:#7e7e7e;fill-opacity:1;stroke:none;stroke-width:0;stroke-linecap:butt;stroke-linejoin:round;stroke-miterlimit:4;stroke-dasharray:none;stroke-opacity:1"
         id="path855"
         cy="32.416656"
         cx="31.75"
         rx="31.75"
         ry="31.749998" />
      <path
         style="fill:#7e7e7e;fill-opacity:1;stroke:none;stroke-width:0.26458332px;stroke-linecap:butt;stroke-linejoin:miter;stroke-opacity:1"
         d="m 84.666667,37.70834 c 10e-7,10.583335 5.291667,15.875 15.875003,15.875 l 116.41666,-1.5e-5 c 10.58333,0 15.875,-5.291665 15.875,-15.875 V 27.124992 c 0,-10.583333 -5.29167,-15.875 -15.875,-15.875 l -116.41666,1.5e-5 c -10.583336,0 -15.875002,5.291667 -15.875003,15.875 z"
         id="path857"
         inkscape:connector-curvature="0"
         sodipodi:nodetypes="ccccccccc" />
      <g
         transform="translate(3.3333332e-7,84.666682)"
         id="g867"
         style="fill:#7e7e7e;fill-opacity:1">
        <ellipse
           ry="31.749998"
           rx="31.75"
           cx="31.75"
           cy="32.416656"
           id="ellipse863"
           style="fill:#7e7e7e;fill-opacity:1;stroke:none;stroke-width:0;stroke-linecap:butt;stroke-linejoin:round;stroke-miterlimit:4;stroke-dasharray:none;stroke-opacity:1" />
        <path
           sodipodi:nodetypes="ccccccccc"
           inkscape:connector-curvature="0"
           id="path865"
           d="m 84.666667,37.70834 c 10e-7,10.583335 5.291667,15.875 15.875003,15.875 l 116.41666,-1.5e-5 c 10.58333,0 15.875,-5.291665 15.875,-15.875 V 27.124992 c 0,-10.583333 -5.29167,-15.875 -15.875,-15.875 l -116.41666,1.5e-5 c -10.583336,0 -15.875002,5.291667 -15.875003,15.875 z"
           style="fill:#7e7e7e;fill-opacity:1;stroke:none;stroke-width:0.26458332px;stroke-linecap:butt;stroke-linejoin:miter;stroke-opacity:1" />
      </g>
      <g
         id="g873"
         transform="translate(3.3333332e-7,169.33335)"
         style="fill:#7e7e7e;fill-opacity:1">
        <ellipse
           style="fill:#7e7e7e;fill-opacity:1;stroke:none;stroke-width:0;stroke-linecap:butt;stroke-linejoin:round;stroke-miterlimit:4;stroke-dasharray:none;stroke-opacity:1"
           id="ellipse869"
           cy="32.416656"
           cx="31.75"
           rx="31.75"
           ry="31.749998" />
        <path
           style="fill:#7e7e7e;fill-opacity:1;stroke:none;stroke-width:0.26458332px;stroke-linecap:butt;stroke-linejoin:miter;stroke-opacity:1"
           d="m 84.666667,37.70834 c 10e-7,10.583335 5.291667,15.875 15.875003,15.875 l 116.41666,-1.5e-5 c 10.58333,0 15.875,-5.291665 15.875,-15.875 V 27.124992 c 0,-10.583333 -5.29167,-15.875 -15.875,-15.875 l -116.41666,1.5e-5 c -10.583336,0 -15.875002,5.291667 -15.875003,15.875 z"
           id="path871"
           inkscape:connector-curvature="0"
           sodipodi:nodetypes="ccccccccc" />
      </g>
    </g>
  </g>
</svg>
